<svg width="213" height="49" viewBox="0 0 213 49" fill="none" xmlns="http://www.w3.org/2000/svg">
<path d="M26.4 18C25.7667 16.8333 24.85 15.95 23.65 15.35C22.4833 14.7167 21.1 14.4 19.5 14.4C16.7333 14.4 14.5167 15.3167 12.85 17.15C11.1833 18.95 10.35 21.3667 10.35 24.4C10.35 27.6333 11.2167 30.1667 12.95 32C14.7167 33.8 17.1333 34.7 20.2 34.7C22.3 34.7 24.0667 34.1667 25.5 33.1C26.9667 32.0333 28.0333 30.5 28.7 28.5H17.85V22.2H36.45V30.15C35.8167 32.2833 34.7333 34.2667 33.2 36.1C31.7 37.9333 29.7833 39.4167 27.45 40.55C25.1167 41.6833 22.4833 42.25 19.55 42.25C16.0833 42.25 12.9833 41.5 10.25 40C7.55 38.4667 5.43333 36.35 3.9 33.65C2.4 30.95 1.65 27.8667 1.65 24.4C1.65 20.9333 2.4 17.85 3.9 15.15C5.43333 12.4167 7.55 10.3 10.25 8.8C12.95 7.26666 16.0333 6.5 19.5 6.5C23.7 6.5 27.2333 7.51666 30.1 9.55C33 11.5833 34.9167 14.4 35.85 18H26.4ZM49.7359 18.75C50.7359 17.2167 51.9859 16.0167 53.4859 15.15C54.9859 14.25 56.6526 13.8 58.4859 13.8V22.85H56.1359C54.0026 22.85 52.4026 23.3167 51.3359 24.25C50.2693 25.15 49.7359 26.75 49.7359 29.05V42H41.1859V14.1H49.7359V18.75ZM66.8727 11.2C65.3727 11.2 64.1393 10.7667 63.1727 9.9C62.2393 9 61.7727 7.9 61.7727 6.6C61.7727 5.26667 62.2393 4.16666 63.1727 3.3C64.1393 2.4 65.3727 1.95 66.8727 1.95C68.3393 1.95 69.5393 2.4 70.4727 3.3C71.4393 4.16666 71.9227 5.26667 71.9227 6.6C71.9227 7.9 71.4393 9 70.4727 9.9C69.5393 10.7667 68.3393 11.2 66.8727 11.2ZM71.1227 14.1V42H62.5727V14.1H71.1227ZM91.3188 21.2H86.7188V42H78.1688V21.2H75.0688V14.1H78.1688V13.3C78.1688 9.86667 79.1521 7.26666 81.1188 5.5C83.0854 3.7 85.9688 2.8 89.7688 2.8C90.4021 2.8 90.8688 2.81666 91.1688 2.85V10.1C89.5354 10 88.3854 10.2333 87.7188 10.8C87.0521 11.3667 86.7188 12.3833 86.7188 13.85V14.1H91.3188V21.2ZM121.636 27.6C121.636 28.4 121.586 29.2333 121.486 30.1H102.136C102.27 31.8333 102.82 33.1667 103.786 34.1C104.786 35 106.003 35.45 107.436 35.45C109.57 35.45 111.053 34.55 111.886 32.75H120.986C120.52 34.5833 119.67 36.2333 118.436 37.7C117.236 39.1667 115.72 40.3167 113.886 41.15C112.053 41.9833 110.003 42.4 107.736 42.4C105.003 42.4 102.57 41.8167 100.436 40.65C98.303 39.4833 96.6363 37.8167 95.4363 35.65C94.2363 33.4833 93.6363 30.95 93.6363 28.05C93.6363 25.15 94.2197 22.6167 95.3863 20.45C96.5863 18.2833 98.253 16.6167 100.386 15.45C102.52 14.2833 104.97 13.7 107.736 13.7C110.436 13.7 112.836 14.2667 114.936 15.4C117.036 16.5333 118.67 18.15 119.836 20.25C121.036 22.35 121.636 24.8 121.636 27.6ZM112.886 25.35C112.886 23.8833 112.386 22.7167 111.386 21.85C110.386 20.9833 109.136 20.55 107.636 20.55C106.203 20.55 104.986 20.9667 103.986 21.8C103.02 22.6333 102.42 23.8167 102.186 25.35H112.886ZM143.147 13.8C146.414 13.8 149.014 14.8667 150.947 17C152.914 19.1 153.897 22 153.897 25.7V42H145.397V26.85C145.397 24.9833 144.914 23.5333 143.947 22.5C142.98 21.4667 141.68 20.95 140.047 20.95C138.414 20.95 137.114 21.4667 136.147 22.5C135.18 23.5333 134.697 24.9833 134.697 26.85V42H126.147V14.1H134.697V17.8C135.564 16.5667 136.73 15.6 138.197 14.9C139.664 14.1667 141.314 13.8 143.147 13.8ZM164.138 11.2C162.638 11.2 161.405 10.7667 160.438 9.9C159.505 9 159.038 7.9 159.038 6.6C159.038 5.26667 159.505 4.16666 160.438 3.3C161.405 2.4 162.638 1.95 164.138 1.95C165.605 1.95 166.805 2.4 167.738 3.3C168.705 4.16666 169.188 5.26667 169.188 6.6C169.188 7.9 168.705 9 167.738 9.9C166.805 10.7667 165.605 11.2 164.138 11.2ZM168.388 14.1V42H159.838V14.1H168.388ZM191.084 42L185.734 34.25L181.234 42H171.984L181.184 27.75L171.734 14.1H181.334L186.684 21.8L191.184 14.1H200.434L191.084 28.15L200.684 42H191.084Z" fill="#0071DA"/>
</svg>
