<svg width="300" height="300" viewBox="0 0 300 300" fill="none" xmlns="http://www.w3.org/2000/svg">
<path d="M48 252V276C48 282.627 53.3726 288 60 288C66.6274 288 72 282.627 72 276V252C72 245.373 66.6274 240 60 240C53.3726 240 48 245.373 48 252Z" fill="#0071DA" fill-opacity="0.7"/>
<path d="M108 210V276C108 282.627 113.373 288 120 288C126.627 288 132 282.627 132 276V210C132 203.373 126.627 198 120 198C113.373 198 108 203.373 108 210Z" fill="#0071DA"/>
<path d="M114.65 103.96L62.4853 156.125C57.799 160.812 57.799 168.41 62.4853 173.096C67.1716 177.782 74.7696 177.782 79.4558 173.096L131.621 120.931C136.307 116.245 136.307 108.647 131.621 103.96C126.935 99.2741 119.337 99.2741 114.65 103.96Z" fill="#0071DA"/>
<path d="M228 144V276C228 282.627 233.373 288 240 288C246.627 288 252 282.627 252 276V144C252 137.373 246.627 132 240 132C233.373 132 228 137.373 228 144Z" fill="#0071DA"/>
<path d="M168 222V276C168 282.627 173.373 288 180 288C186.627 288 192 282.627 192 276V222C192 215.373 186.627 210 180 210C173.373 210 168 215.373 168 222Z" fill="#0071DA" fill-opacity="0.7"/>
<path d="M168 123C196.167 123 219 100.167 219 72C219 43.8335 196.167 21 168 21C139.833 21 117 43.8335 117 72C117 100.167 139.833 123 168 123Z" stroke="#0071DA" stroke-width="20"/>
</svg>
