<svg width="300" height="300" viewBox="0 0 300 300" fill="none" xmlns="http://www.w3.org/2000/svg">
<g clip-path="url(#clip0_1780_49)">
<mask id="path-1-inside-1_1780_49" fill="white">
<rect y="9" width="119" height="160" rx="11"/>
</mask>
<rect y="9" width="119" height="160" rx="11" stroke="url(#paint0_linear_1780_49)" stroke-width="30" mask="url(#path-1-inside-1_1780_49)"/>
<path d="M210.762 95.2027C213.045 88.9926 211.787 82.3476 208.016 77.4775L212.931 79.2665C214.747 79.9277 215.684 81.9361 215.023 83.7525L167.824 213.43C167.163 215.247 165.155 216.183 163.338 215.522L156.959 213.2C163.506 212.287 169.345 207.886 171.782 201.254L210.762 95.2027Z" stroke="#0071DA" stroke-opacity="0.7" stroke-width="15"/>
<path d="M279.459 181.651C283.728 176.596 284.819 169.922 282.941 164.055L286.948 167.418C288.428 168.66 288.622 170.868 287.379 172.348L198.674 278.063C197.432 279.543 195.224 279.737 193.743 278.494L188.543 274.131C195.007 275.512 202 273.373 206.558 267.975L279.459 181.651Z" stroke="#0071DA" stroke-width="15"/>
<rect width="24.7407" height="24.7407" rx="4" transform="matrix(-0.000100092 1 -0.865975 0.500087 81.1387 74.184)" fill="#003C74"/>
<rect width="25.1772" height="25.1772" rx="4" transform="matrix(0.870919 0.491427 -0.870919 0.491427 58.9272 60)" fill="url(#paint1_linear_1780_49)"/>
<rect width="24.7407" height="24.7407" rx="4" transform="matrix(-0.000100118 -1 0.865975 0.500087 36.7139 98.9247)" fill="url(#paint2_linear_1780_49)"/>
</g>
<defs>
<linearGradient id="paint0_linear_1780_49" x1="-3.39386e-07" y1="14.5" x2="116.5" y2="165.5" gradientUnits="userSpaceOnUse">
<stop stop-color="#0071DA"/>
</linearGradient>
<linearGradient id="paint1_linear_1780_49" x1="12.5886" y1="0" x2="12.5886" y2="25.1772" gradientUnits="userSpaceOnUse">
<stop stop-color="#0071DA"/>
</linearGradient>
<linearGradient id="paint2_linear_1780_49" x1="24.7407" y1="0" x2="1.90735e-06" y2="24.7407" gradientUnits="userSpaceOnUse">
<stop offset="0.227486" stop-color="#0071DA"/>
<stop offset="1" stop-color="#003C74"/>
</linearGradient>
<clipPath id="clip0_1780_49">
<rect width="300" height="300" fill="white"/>
</clipPath>
</defs>
</svg>
