<svg width="300" height="300" viewBox="0 0 300 300" fill="none" xmlns="http://www.w3.org/2000/svg">
<mask id="path-1-inside-1_1857_58" fill="white">
<rect x="32" y="10" width="237" height="280" rx="11"/>
</mask>
<rect x="32" y="10" width="237" height="280" rx="11" stroke="#252525" stroke-width="30" mask="url(#path-1-inside-1_1857_58)"/>
<path d="M227.538 146H153.462C144.37 146 137 155.626 137 167.5C137 179.374 144.37 189 153.462 189H227.538C236.63 189 244 179.374 244 167.5C244 155.626 236.63 146 227.538 146Z" fill="#252525" fill-opacity="0.7"/>
<path d="M141.772 199H68C61.3726 199 56 204.373 56 211C56 217.627 61.3726 223 68 223H141.772C148.4 223 153.772 217.627 153.772 211C153.772 204.373 148.4 199 141.772 199Z" fill="#252525"/>
<path d="M174.154 112H65.8462C60.4083 112 56 117.373 56 124C56 130.627 60.4083 136 65.8462 136H174.154C179.592 136 184 130.627 184 124C184 117.373 179.592 112 174.154 112Z" fill="#252525"/>
<path d="M234.231 233H126.769C121.374 233 117 238.373 117 245C117 251.627 121.374 257 126.769 257H234.231C239.626 257 244 251.627 244 245C244 238.373 239.626 233 234.231 233Z" fill="#252525" fill-opacity="0.7"/>
<rect x="56" y="33" width="188" height="47" rx="10" fill="#252525"/>
<circle cx="210" cy="56" r="20" fill="white"/>
<path d="M163.231 50H77.7692C73.4784 50 70 52.9101 70 56.5C70 60.0899 73.4784 63 77.7692 63H163.231C167.522 63 171 60.0899 171 56.5C171 52.9101 167.522 50 163.231 50Z" fill="white"/>
</svg>
