<svg width="50" height="50" viewBox="0 0 50 50" fill="none" xmlns="http://www.w3.org/2000/svg">
<rect x="5.5" y="4.5" width="38" height="40" rx="1.5" stroke="#252525" stroke-width="3"/>
<path d="M16.6002 16H14.8902L12.0302 11.67V16H10.3202V8.98H12.0302L14.8902 13.33V8.98H16.6002V16ZM19.5497 10.35V11.77H21.8397V13.09H19.5497V14.63H22.1397V16H17.8397V8.98H22.1397V10.35H19.5497ZM32.9099 8.98L31.0799 16H29.0099L27.8899 11.38L26.7299 16H24.6599L22.8799 8.98H24.7099L25.7199 14.09L26.9699 8.98H28.8499L30.0499 14.09L31.0699 8.98H32.9099ZM36.3075 16.07C35.7941 16.07 35.3341 15.9867 34.9275 15.82C34.5208 15.6533 34.1941 15.4067 33.9475 15.08C33.7075 14.7533 33.5808 14.36 33.5675 13.9H35.3875C35.4141 14.16 35.5041 14.36 35.6575 14.5C35.8108 14.6333 36.0108 14.7 36.2575 14.7C36.5108 14.7 36.7108 14.6433 36.8575 14.53C37.0041 14.41 37.0775 14.2467 37.0775 14.04C37.0775 13.8667 37.0175 13.7233 36.8975 13.61C36.7841 13.4967 36.6408 13.4033 36.4675 13.33C36.3008 13.2567 36.0608 13.1733 35.7475 13.08C35.2941 12.94 34.9241 12.8 34.6375 12.66C34.3508 12.52 34.1041 12.3133 33.8975 12.04C33.6908 11.7667 33.5875 11.41 33.5875 10.97C33.5875 10.3167 33.8241 9.80667 34.2975 9.44C34.7708 9.06667 35.3875 8.88 36.1475 8.88C36.9208 8.88 37.5441 9.06667 38.0175 9.44C38.4908 9.80667 38.7441 10.32 38.7775 10.98H36.9275C36.9141 10.7533 36.8308 10.5767 36.6775 10.45C36.5241 10.3167 36.3275 10.25 36.0875 10.25C35.8808 10.25 35.7141 10.3067 35.5875 10.42C35.4608 10.5267 35.3975 10.6833 35.3975 10.89C35.3975 11.1167 35.5041 11.2933 35.7175 11.42C35.9308 11.5467 36.2641 11.6833 36.7175 11.83C37.1708 11.9833 37.5375 12.13 37.8175 12.27C38.1041 12.41 38.3508 12.6133 38.5575 12.88C38.7641 13.1467 38.8675 13.49 38.8675 13.91C38.8675 14.31 38.7641 14.6733 38.5575 15C38.3575 15.3267 38.0641 15.5867 37.6775 15.78C37.2908 15.9733 36.8341 16.07 36.3075 16.07Z" fill="#252525"/>
<rect x="10" y="20" width="29" height="3" rx="1.5" fill="#252525"/>
<rect x="10" y="26" width="29" height="3" rx="1.5" fill="#252525"/>
<rect x="10" y="32" width="29" height="3" rx="1.5" fill="#252525"/>
<rect x="10" y="38" width="29" height="3" rx="1.5" fill="#252525"/>
</svg>
